<svg viewBox="0 0 190 150" xmlns="http://www.w3.org/2000/svg" fill="none" preserveAspectRatio="xMidYMid meet" style="width: 100%; height: auto;"><path d="M128.5 57L146.5 34.5H102L110.5 57H128.5Z" fill="url(#mainGradient)" stroke="#d9d9d9" stroke-width="3" opacity="1" pathLength="1" stroke-dashoffset="0px" stroke-dasharray="1px 1px" style="transform: none; transform-origin: 50% 50%; transform-box: fill-box;"/><path d="M136 4.5L147.5 31H100L126 95H174.5L185.5 120.5H108.5L57 5L136 4.5Z" fill="url(#mainGradient)" stroke="#d9d9d9" stroke-width="3" opacity="1" pathLength="1" stroke-dashoffset="0px" stroke-dasharray="1px 1px" style="transform: none; transform-origin: 50% 50%; transform-box: fill-box;"/><path d="M89.5 145.5L109 121H186L170 145.5H89.5Z" fill="url(#mainGradient)" stroke="#d9d9d9" stroke-width="3" opacity="0.9166745228867512" pathLength="1" stroke-dashoffset="0px" stroke-dasharray="0.9166745228867512px 1px" style="transform: scale(1.00083); transform-origin: 50% 50%; transform-box: fill-box;"/><path d="M5 121.5L57 5.5L108.5 121L89.5 145.5L57 72L23.5 144L5 121.5Z" fill="url(#mainGradient)" stroke="#d9d9d9" stroke-width="3" opacity="0.4967041227791924" pathLength="1" stroke-dashoffset="0px" stroke-dasharray="0.4967041227791924px 1px" style="transform: scale(1.00503); transform-origin: 50% 50%; transform-box: fill-box;"/><path d="M50 146H27L57.5 78L70 102L50 146Z" fill="url(#mainGradient)" stroke="#d9d9d9" stroke-width="3" opacity="0.0799335420888383" pathLength="1" stroke-dashoffset="0px" stroke-dasharray="0.0799335420888383px 1px" style="transform: scale(1.0092); transform-origin: 50% 50%; transform-box: fill-box;"/><path d="M2.5 122L53.5 2.5H136L147.5 31L128 57.5L144 95H174.5L185.5 121L170.5 145.5L24 146L2.5 122Z" fill="none" stroke="#d9d9d9" stroke-width="3" opacity="0" pathLength="1" stroke-dashoffset="0px" stroke-dasharray="0px 1px" style="transform: scale(1.01); transform-origin: 50% 50%; transform-box: fill-box;"/><defs><linearGradient id="mainGradient" x1="0" y1="150" x2="0" y2="0" gradientUnits="userSpaceOnUse"><stop offset="0%" stop-color="#666666"/><stop offset="100%" stop-color="#4a80e8"/></linearGradient></defs></svg>