<svg width="190" height="190" viewBox="0 0 190 190" fill="none" xmlns="http://www.w3.org/2000/svg" style="background: #151515;">
<path d="M128.5 57L146.5 34.5H102L110.5 57H128.5Z" fill="url(#paint0_linear_83_41)" stroke="#151515" stroke-width="4"/>
<path d="M136 4.5L147.5 31H100L126 95H174.5L185.5 120.5H108.5L57 5L136 4.5Z" fill="url(#paint1_linear_83_41)" stroke="#151515" stroke-width="4"/>
<path d="M89.5 145.5L109 121H186L170 145.5H89.5Z" fill="url(#paint2_linear_83_41)" stroke="#151515" stroke-width="4"/>
<path d="M5 121.5L57 5.5L108.5 121L89.5 145.5L57 72L23.5 144L5 121.5Z" fill="url(#paint3_linear_83_41)" stroke="#151515" stroke-width="4"/>
<path d="M50 146H27L57.5 78L70 102L50 146Z" fill="url(#paint4_linear_83_41)" stroke="#151515" stroke-width="4"/>
<path d="M2.5 122L53.5 2.5H136L147.5 31L128 57.5L144 95H174.5L185.5 121L170.5 145.5L24 146L2.5 122Z" stroke="#151515" stroke-width="4"/>
<defs>
<linearGradient id="paint0_linear_83_41" x1="124.25" y1="34.5" x2="124.235" y2="53.1429" gradientUnits="userSpaceOnUse">
<stop stop-color="#32ffce"/>
<stop offset="1" stop-color="#151515"/>
</linearGradient>
<linearGradient id="paint1_linear_83_41" x1="121.25" y1="4.5" x2="121.113" y2="100.615" gradientUnits="userSpaceOnUse">
<stop stop-color="#32ffce"/>
<stop offset="1" stop-color="#ffffff44"/>
</linearGradient>
<linearGradient id="paint2_linear_83_41" x1="137.75" y1="121" x2="137.742" y2="141.3" gradientUnits="userSpaceOnUse">
<stop stop-color="#32ffce"/>
<stop offset="1" stop-color="#1515151"/>
</linearGradient>
<linearGradient id="paint3_linear_83_41" x1="56.75" y1="5.5" x2="56.5024" y2="121.5" gradientUnits="userSpaceOnUse">
<stop stop-color="#32ffce"/>
<stop offset="1" stop-color="#ffffff00"/>
</linearGradient>
<linearGradient id="paint4_linear_83_41" x1="48.5" y1="78" x2="48.3594" y2="134.343" gradientUnits="userSpaceOnUse">
<stop stop-color="#32ffce"/>
<stop offset="1" stop-color="#151515"/>
</linearGradient>
</defs>
</svg>
