<svg version="1.1" xmlns="http://www.w3.org/2000/svg" xmlns:xlink="http://www.w3.org/1999/xlink" width="1560" height="804"><defs/><g><path fill="none" stroke="#02063B" paint-order="fill stroke markers" d=" M 20 423.74203867644184 L 21 424.8154856477405 L 22 425.88693984066714 L 23 426.956307670944 L 24 428.0234957365233 L 25 429.08841082574475 L 26 430.1509599254772 L 27 431.2110502292428 L 28 432.2685891453227 L 29 433.3234843048448 L 30 434.375643569851 L 31 435.4249750413451 L 32 436.47138706731965 L 33 437.51478825076106 L 34 438.5550874576323 L 35 439.5921938248331 L 36 440.6260167681362 L 37 441.65646599009915 L 38 442.68345148795123 L 39 443.7068835614547 L 40 444.72667282073917 L 41 445.74273019410975 L 42 446.7549669358263 L 43 447.76329463385514 L 44 448.76762521759105 L 45 449.7678709655497 L 46 450.76394451302974 L 47 451.7557588597431 L 48 452.74322737741403 L 49 453.7262638173458 L 50 454.7047823179535 L 51 455.6786974122639 L 52 456.6479240353798 L 53 457.6123775319106 L 54 458.5719736633659 L 55 459.52662861551323 L 56 460.4762590056988 L 57 461.42078189013034 L 58 462.3601147711216 L 59 463.29417560429795 L 60 464.22288280576277 L 61 465.1461552592226 L 62 466.06391232307277 L 63 466.9760738374405 L 64 467.8825601311862 L 65 468.7832920288628 L 66 469.67819085763045 L 67 470.56717845412874 L 68 471.45017717130315 L 69 472.3271098851874 L 70 473.1979000016396 L 71 474.0624714630321 L 72 474.9207487548949 L 73 475.77265691251085 L 74 476.6181215274638 L 75 477.45706875413754 L 76 478.2894253161655 L 77 479.11511851283103 L 78 479.9340762254177 L 79 480.7462269235077 L 80 481.55149967123015 L 81 482.3498241334565 L 82 483.1411305819439 L 83 483.92534990142576 L 84 484.70241359564807 L 85 485.4722537933523 L 86 486.2348032542036 L 87 486.98999537466364 L 88 487.73776419380795 L 89 488.4780443990873 L 90 489.2107713320322 L 91 489.93588099390047 L 92 490.65331005126694 L 93 491.3629958415554 L 94 492.06487637851166 L 95 492.7588903576175 L 96 493.4449771614454 L 97 494.1230768649531 L 98 494.79313024071723 L 99 495.45507876410716 L 100 496.1088646183959 L 101 496.7544306998107 L 102 497.3917206225202 L 103 498.02067872355957 L 104 498.64125006769234 L 105 499.2533804522084 L 106 499.8570164116585 L 107 500.45210522252387 L 108 501.0385949078215 L 109 501.6164342416437 L 110 502.1855727536325 L 111 502.7459607333881 L 112 503.29754923481005 L 113 503.84029008037334 L 114 504.37413586533546 L 115 504.8990399618775 L 116 505.41495652317656 L 117 505.9218404874101 L 118 506.4196475816918 L 119 506.90833432593865 L 120 507.3878580366684 L 121 507.85817683072804 L 122 508.3192496289515 L 123 508.7710361597482 L 124 509.2134969626199 L 125 509.6465933916079 L 126 510.0702876186681 L 127 510.4845426369752 L 128 510.8893222641549 L 129 511.28459114544427 L 130 511.67031475677965 L 131 512.0464594078123 L 132 512.4129922448507 L 133 512.7698812537303 L 134 513.1170952626101 L 135 513.4546039446942 L 136 513.782377820882 L 137 514.100388262342 L 138 514.408607493013 L 139 514.7070085920295 L 140 514.9955654960736 L 141 515.2742530016512 L 142 515.5430467672936 L 143 515.801923315683 L 144 516.0508600357036 L 145 516.2898351844167 L 146 516.5188278889591 L 147 516.7378181483666 L 148 516.9467868353213 L 149 517.1457156978214 L 150 517.3345873607761 L 151 517.5133853275232 L 152 517.6820939812694 L 153 517.8406985864547 L 154 517.9891852900394 L 155 518.1275411227142 L 156 518.2557540000329 L 157 518.3738127234676 L 158 518.4817069813874 L 159 518.5794273499586 L 160 518.6669652939676 L 161 518.7443131675672 L 162 518.8114642149436 L 163 518.8684125709071 L 164 518.9151532614039 L 165 518.9516822039509 L 166 518.9779962079917 L 167 518.9940929751763 L 168 518.9999710995609 L 169 518.9956300677309 L 170 518.9810702588462 L 171 518.9562929446076 L 172 518.9213002891461 L 173 518.8760953488334 L 174 518.8206820720152 L 175 518.7550652986665 L 176 518.6792507599689 L 177 518.5932450778093 L 178 518.4970557642027 L 179 518.3906912206351 L 180 518.2741607373298 L 181 518.1474744924366 L 182 518.0106435511423 L 183 517.863679864704 L 184 517.706596269406 L 185 517.5394064854379 L 186 517.3621251156967 L 187 517.1747676445112 L 188 516.9773504362893 L 189 516.769890734089 L 190 516.5524066581123 L 191 516.3249172041225 L 192 516.0874422417847 L 193 515.840002512931 L 194 515.5826196297484 L 195 515.3153160728908 L 196 515.0381151895165 L 197 514.7510411912475 L 198 514.4541191520565 L 199 514.1473750060754 L 200 513.8308355453308 L 201 513.5045284174041 L 202 513.168482123016 L 203 512.8227260135376 L 204 512.4672902884267 L 205 512.1022059925904 L 206 511.72750501367256 L 207 511.34322007926977 L 208 510.9493847540722 L 209 510.546033436932 L 210 510.13320135785887 L 211 509.71092457494296 L 212 509.27923997120547 L 213 508.8381852513771 L 214 508.38779893860476 L 215 507.92812037108695 L 216 507.45918969863783 L 217 506.98104787918027 L 218 506.4937366751685 L 219 505.99729864994066 L 220 505.49177716400084 L 221 504.977216371232 L 222 504.45366121503946 L 223 503.9211574244254 L 224 503.37975150999466 L 225 502.8294907598923 L 226 502.27042323567355 L 227 501.70259776810565 L 228 501.12606395290317 L 229 500.54087214639566 L 230 499.9470734611299 L 231 499.34471976140526 L 232 498.7338636587437 L 233 498.1145585072946 L 234 497.48685839917465 L 235 496.8508181597432 L 236 496.20649334281376 L 237 495.5539402258014 L 238 494.89321580480794 L 239 494.224377789643 L 240 493.54748459878385 L 241 492.8625953542731 L 242 492.1697698765543 L 243 491.46906867924747 L 244 490.76055296386335 L 245 490.0442846144581 L 246 489.32032619222787 L 247 488.58874093004493 L 248 487.84959272693425 L 249 487.10294614249244 L 250 486.34886639124926 L 251 485.58741933697115 L 252 484.8186714869088 L 253 484.04268998598775 L 254 483.2595426109444 L 255 482.46929776440544 L 256 481.672024468914 L 257 480.8677923609004 L 258 480.0566716846005 L 259 479.2387332859196 L 260 478.4140486062454 L 261 477.5826896762073 L 262 476.7447291093854 L 263 475.9002400959681 L 264 475.04929639635975 L 265 474.19197233473744 L 266 473.32834279255997 L 267 472.4584832020272 L 268 471.5824695394916 L 269 470.70037831882223 L 270 469.8122865847216 L 271 468.9182719059967 L 272 468.0184123687835 L 273 467.11278656972695 L 274 466.20147360911585 L 275 465.28455308397423 L 276 464.3621050811089 L 277 463.43421017011445 L 278 462.5009493963361 L 279 461.5624042737909 L 280 460.618656778048 L 281 459.66978933906853 L 282 458.7158848340063 L 283 457.7570265799687 L 284 456.7932983267395 L 285 455.8247842494639 L 286 454.85156894129665 L 287 453.87373740601316 L 288 452.89137505058505 L 289 451.9045676777204 L 290 450.9134014783695 L 291 449.91796302419675 L 292 448.91833926001914 L 293 447.91461749621186 L 294 446.90688540108306 L 295 445.895230993216 L 296 444.8797426337815 L 297 443.8605090188201 L 298 442.837619171495 L 299 441.8111624343167 L 300 440.7812284613394 L 301 439.74790721033014 L 302 438.71128893491203 L 303 437.6714641766809 L 304 436.6285237572971 L 305 435.58255877055285 L 306 434.53366057441605 L 307 433.48192078305055 L 308 432.4274312588143 L 309 431.3702841042357 L 310 430.3105716539694 L 311 429.2483864667312 L 312 428.1838213172137 L 313 427.1169691879831 L 314 426.04792326135794 L 315 424.97677691127 L 316 423.90362369510893 L 317 422.82855734555045 L 318 421.7516717623696 L 319 420.67306100423923 L 320 419.59281928051456 L 321 418.51104094300445 L 322 417.4278204777308 L 323 416.3432524966755 L 324 415.2574317295168 L 325 414.1704530153554 L 326 413.0824112944309 L 327 411.9934015998293 L 328 410.90351904918253 L 329 409.8128588363605 L 330 408.7215162231568 L 331 407.62958653096814 L 332 406.53716513246843 L 333 405.4443474432788 L 334 404.35122891363386 L 335 403.2579050200445 L 336 402.16447125695873 L 337 401.07102312842096 L 338 399.97765613973036 L 339 398.884465789099 L 340 397.79154755931086 L 341 396.698996909382 L 342 395.60690926622283 L 343 394.51538001630337 L 344 393.4245044973216 L 345 392.3343779898766 L 346 391.2450957091464 L 347 390.15675279657154 L 348 389.06944431154494 L 349 387.98326522310947 L 350 386.89831040166274 L 351 385.814674610671 L 352 384.7324524983919 L 353 383.65173858960816 L 354 382.5726272773708 L 355 381.4952128147552 L 356 380.4195893066279 L 357 379.3458507014282 L 358 378.2740907829616 L 359 377.2044031622088 L 360 376.13688126914917 L 361 375.07161834460055 L 362 374.00870743207514 L 363 372.9482413696528 L 364 371.8903127818721 L 365 370.83501407164067 L 366 369.78243741216386 L 367 368.7326747388944 L 368 367.6858177415023 L 369 366.64195785586656 L 370 365.6011862560886 L 371 364.56359384652905 L 372 363.5292712538677 L 373 362.4983088191879 L 374 361.4707965900862 L 375 360.4468243128067 L 376 359.42648142440277 L 377 358.4098570449253 L 378 357.39703996963834 L 379 356.388118661264 L 380 355.38318124225526 L 381 354.3823154870993 L 382 353.3856088146511 L 383 352.3931482804979 L 384 351.4050205693553 L 385 350.42131198749644 L 386 349.442108455213 L 387 348.46749549931144 L 388 347.49755824564204 L 389 346.53238141166446 L 390 345.57204929904765 L 391 344.61664578630706 L 392 343.66625432147816 L 393 342.72095791482803 L 394 341.78083913160475 L 395 340.84598008482624 L 396 339.9164624281077 L 397 338.9923673485303 L 398 338.0737755595496 L 399 337.1607672939461 L 400 336.25342229681706 L 401 335.3518198186117 L 402 334.4560386082092 L 403 333.5661569060401 L 404 332.68225243725277 L 405 331.80440240492493 L 406 330.93268348332 L 407 330.0671718111905 L 408 329.2079429851275 L 409 328.3550720529581 L 410 327.50863350719044 L 411 326.668701278507 L 412 325.83534872930755 L 413 325.00864864730136 L 414 324.18867323914975 L 415 323.3754941241592 L 416 322.5691823280259 L 417 321.76980827663215 L 418 320.9774417898954 L 419 320.19215207566947 L 420 319.4140077237001 L 421 318.64307669963375 L 422 317.8794263390818 L 423 317.12312334173873 L 424 316.3742337655565 L 425 315.63282302097485 L 426 314.89895586520834 L 427 314.17269639658986 L 428 313.4541080489724 L 429 312.74325358618836 L 430 312.0401950965676 L 431 311.3449939875145 L 432 310.6577109801443 L 433 309.97840610397964 L 434 309.30713869170745 L 435 308.6439673739964 L 436 307.98895007437625 L 437 307.3421440041781 L 438 306.703605657538 L 439 306.0733908064621 L 440 305.45155449595563 L 441 304.8381510392147 L 442 304.23323401288314 L 443 303.63685625237196 L 444 303.04906984724545 L 445 302.46992613667084 L 446 301.8994757049345 L 447 301.3377683770239 L 448 300.7848532142753 L 449 300.2407785100887 L 450 299.70559178571017 L 451 299.1793397860805 L 452 298.662068475753 L 453 298.15382303487837 L 454 297.65464785525853 L 455 297.1645865364696 L 456 296.6836818820535 L 457 296.21197589577946 L 458 295.7495097779754 L 459 295.29632392192894 L 460 294.8524579103599 L 461 294.41795051196243 L 462 293.9928396780192 L 463 293.57716253908677 L 464 293.1709554017519 L 465 292.7742537454609 L 466 292.38709221942054 L 467 292.00950463957184 L 468 291.64152398563635 L 469 291.28318239823557 L 470 290.93451117608356 L 471 290.5955407732537 L 472 290.26630079651824 L 473 289.9468200027624 L 474 289.63712629647307 L 475 289.3372467273009 L 476 289.0472074876983 L 477 288.76703391063137 L 478 288.4967504673671 L 479 288.23638076533655 L 480 287.9859475460722 L 481 287.7454726832222 L 482 287.51497718063945 L 483 287.2944811705472 L 484 287.0840039117809 L 485 286.88356378810556 L 486 286.69317830661043 L 487 286.5128640961798 L 488 286.34263690604047 L 489 286.18251160438626 L 490 286.0325021770793 L 491 285.89262172642873 L 492 285.7628824700458 L 493 285.6432957397771 L 494 285.5338719807148 L 495 285.4346207502843 L 496 285.3455507174093 L 497 285.26666966175475 L 498 285.1979844730475 L 499 285.1395011504742 L 500 285.0912248021575 L 501 285.05315964471004 L 502 285.0253090028659 L 503 285.00767530919023 L 504 285.00026010386694 L 505 285.0030640345641 L 506 285.0160868563772 L 507 285.039327431851 L 508 285.0727837310783 L 509 285.1164528318776 L 510 285.1703309200484 L 511 285.234413289704 L 512 285.30869434368276 L 513 285.39316759403704 L 514 285.4878256625996 L 515 285.59266028162847 L 516 285.7076622945285 L 517 285.83282165665173 L 518 285.9681274361743 L 519 286.1135678150514 L 520 286.26913009004954 L 521 286.4348006738561 L 522 286.610565096266 L 523 286.7964080054455 L 524 286.9923131692735 L 525 287.19826347675865 L 526 287.4142409395345 L 527 287.6402266934304 L 528 287.87620100011895 L 529 288.1221432488404 L 530 288.3780319582026 L 531 288.6438447780573 L 532 288.91955849145245 L 533 289.2051490166597 L 534 289.5005914092781 L 535 289.8058598644128 L 536 290.12092771892867 L 537 290.44576745377947 L 538 290.78035069641123 L 539 291.12464822324034 L 540 291.4786299622064 L 541 291.8422649953984 L 542 292.2155215617555 L 543 292.5983670598408 L 544 292.9907680506894 L 545 293.39269026072833 L 546 293.80409858477077 L 547 294.22495708908195 L 548 294.6552290145178 L 549 295.0948767797354 L 550 295.5438619844759 L 551 296.00214541291797 L 552 296.4696870371036 L 553 296.9464460204338 L 554 297.43238072123563 L 555 297.9274486963994 L 556 298.4316067050855 L 557 298.9448107125015 L 558 299.4670158937481 L 559 299.9981766377343 L 560 300.53824655116136 L 561 301.0871784625748 L 562 301.64492442648447 L 563 302.21143572755244 L 564 302.78666288484794 L 565 303.3705556561688 L 566 303.96306304243046 L 567 304.5641332921196 L 568 305.173713905815 L 569 305.79175164077276 L 570 306.4181925155762 L 571 307.0529818148516 L 572 307.69606409404673 L 573 308.34738318427355 L 574 309.0068821972144 L 575 309.67450353009053 L 576 310.35018887069367 L 577 311.03387920247894 L 578 311.7255148097195 L 579 312.4250352827226 L 580 313.1323795231058 L 581 313.8474857491333 L 582 314.5702915011125 L 583 315.30073364684915 L 584 316.03874838716183 L 585 316.7842712614542 L 586 317.5372371533449 L 587 318.2975802963556 L 588 319.065234279655 L 589 319.84013205385907 L 590 320.622205936888 L 591 321.41138761987696 L 592 322.2076081731432 L 593 323.0107980522064 L 594 323.82088710386216 L 595 324.63780457231064 L 596 325.4614791053356 L 597 326.2918387605371 L 598 327.12881101161486 L 599 327.9723227547031 L 600 328.8223003147557 L 601 329.67866945198114 L 602 330.5413553683268 L 603 331.41028271401206 L 604 332.28537559411 L 605 333.1665575751755 L 606 334.05375169192206 L 607 334.94688045394344 L 608 335.84586585248246 L 609 336.7506293672444 L 610 337.66109197325505 L 611 338.5771741477631 L 612 339.4987958771861 L 613 340.4258766640988 L 614 341.35833553426426 L 615 342.29609104370616 L 616 343.2390612858228 L 617 344.1871638985409 L 618 345.14031607150895 L 619 346.09843455333083 L 620 347.06143565883696 L 621 348.02923527639325 L 622 349.00174887524844 L 623 349.97889151291656 L 624 350.96057784259654 L 625 351.9467221206267 L 626 352.9372382139734 L 627 353.93203960775475 L 628 354.9310394127968 L 629 355.93415037322256 L 630 356.94128487407386 L 631 357.9523549489629 L 632 358.96727228775666 L 633 359.98594824428943 L 634 361.00829384410537 L 635 362.03421979223054 L 636 363.06363648097175 L 637 364.0964539977428 L 638 365.13258213291874 L 639 366.17193038771404 L 640 367.21440798208766 L 641 368.25992386267205 L 642 369.3083867107257 L 643 370.3597049501094 L 644 371.41378675528523 L 645 372.4705400593358 L 646 373.5298725620069 L 647 374.5916917377687 L 648 375.6559048438971 L 649 376.7224189285744 L 650 377.7911408390081 L 651 378.86197722956706 L 652 379.93483456993454 L 653 381.00961915327736 L 654 382.0862371044309 L 655 383.1645943880984 L 656 384.2445968170637 L 657 385.3261500604188 L 658 386.4091596518022 L 659 387.49353099765045 L 660 388.5791693854601 L 661 389.6659799920598 L 662 390.7538678918934 L 663 391.84273806530996 L 664 392.9324954068637 L 665 394.023044733621 L 666 395.11429079347323 L 667 396.2061382734572 L 668 397.2984918080797 L 669 398.3912559876467 L 670 399.4843353665975 L 671 400.577634471841 L 672 401.6710578110939 L 673 402.76450988122247 L 674 403.85789517658316 L 675 404.95111819736496 L 676 406.04408345793047 L 677 407.13669549515566 L 678 408.22885887676836 L 679 409.32047820968353 L 680 410.4114581483348 L 681 411.5017034030029 L 682 412.5911187481379 L 683 413.67960903067706 L 684 414.7670791783557 L 685 415.85343420801075 L 686 416.9385792338773 L 687 418.0224194758763 L 688 419.10486026789226 L 689 420.1858070660426 L 690 421.2651654569348 L 691 422.34284116591306 L 692 423.41874006529247 L 693 424.4927681825803 L 694 425.56483170868404 L 695 426.6348370061051 L 696 427.70269061711696 L 697 428.7682992719287 L 698 429.83156989683073 L 699 430.8924096223248 L 700 431.95072579123547 L 701 433.00642596680245 L 702 434.0594179407551 L 703 435.1096097413659 L 704 436.1569096414832 L 705 437.2012261665438 L 706 438.2424681025616 L 707 439.2805445040954 L 708 440.31536470219214 L 709 441.34683831230564 L 710 442.374875242192 L 711 443.39938569977795 L 712 444.4202802010035 L 713 445.43746957763847 L 714 446.4508649850697 L 715 447.460377910062 L 716 448.46592017848866 L 717 449.46740396303284 L 718 450.46474179085897 L 719 451.4578465512527 L 720 452.44663150322947 L 721 453.4310102831109 L 722 454.4108969120676 L 723 455.3862058036296 L 724 456.3568517711612 L 725 457.3227500353014 L 726 458.2838162313691 L 727 459.23996641673193 L 728 460.19111707813727 L 729 461.13718513900756 L 730 462.07808796669576 L 731 463.0137433797032 L 732 463.9440696548574 L 733 464.86898553444973 L 734 465.78841023333337 L 735 466.70226344597893 L 736 467.6104653534884 L 737 468.5129366305674 L 738 469.4095984524532 L 739 470.30037250179964 L 740 471.1851809755179 L 741 472.06394659157144 L 742 472.93659259572684 L 743 473.8030427682574 L 744 474.66322143060006 L 745 475.51705345196615 L 746 476.36446425590293 L 747 477.20537982680753 L 748 478.0397267163921 L 749 478.86743205009833 L 750 479.688423533463 L 751 480.5026294584324 L 752 481.30997870962534 L 753 482.11040077054474 L 754 482.9038257297369 L 755 483.69018428689736 L 756 484.4694077589244 L 757 485.2414280859173 L 758 486.00617783712175 L 759 486.763590216819 L 760 487.51359907015984 L 761 488.25613888894327 L 762 488.99114481733795 L 763 489.71855265754664 L 764 490.43829887541403 L 765 491.1503206059754 L 766 491.8545556589481 L 767 492.5509425241629 L 768 493.23942037693666 L 769 493.9199290833851 L 770 494.59240920567504 L 771 495.2568020072156 L 772 495.91304945778876 L 773 496.56109423861795 L 774 497.2008797473742 L 775 497.83235010312023 L 776 498.45545015119086 L 777 499.070125468011 L 778 499.67632236584876 L 779 500.27398789750464 L 780 500.86306986093655 L 781 501.44351680381874 L 782 502.0152780280364 L 783 502.5783035941133 L 784 503.1325443255739 L 785 503.67795181323874 L 786 504.21447841945223 L 787 504.74207728224377 L 788 505.26070231942083 L 789 505.77030823259383 L 790 506.27085051113266 L 791 506.76228543605447 L 792 507.244570083842 L 793 507.71766233019304 L 794 508.1815208536993 L 795 508.63610513945576 L 796 509.0813754825994 L 797 509.5172929917771 L 798 509.9438195925424 L 799 510.3609180306815 L 800 510.7685518754664 L 801 511.16668552283767 L 802 511.55528419851373 L 803 511.93431396102835 L 804 512.3037417046951 L 805 512.6635351624989 L 806 513.0136629089146 L 807 513.3540943626514 L 808 513.6847997893241 L 809 514.0057503040501 L 810 514.3169178739728 L 811 514.618275320709 L 812 514.9097963227241 L 813 515.19145541763 L 814 515.4632280044094 L 815 515.7250903455651 L 816 515.9770195691924 L 817 516.2189936709775 L 818 516.450991516119 L 819 516.672992841174 L 820 516.8849782558284 L 821 517.0869292445896 L 822 517.2788281684046 L 823 517.4606582662003 L 824 517.6324036563472 L 825 517.7940493380471 L 826 517.9455811926427 L 827 518.0869859848517 L 828 518.2182513639214 L 829 518.3393658647088 L 830 518.4503189086814 L 831 518.5511008048412 L 832 518.6417027505711 L 833 518.7221168324039 L 834 518.7923360267133 L 835 518.8523542003276 L 836 518.9021661110653 L 837 518.9417674081928 L 838 518.9711546328047 L 839 518.9903252181256 L 840 518.9992774897344 L 841 518.998010665711 L 842 518.9865248567037 L 843 518.9648210659203 L 844 518.9329011890402 L 845 518.8907680140487 L 846 518.8384252209937 L 847 518.7758773816643 L 848 518.7031299591911 L 849 518.6201893075695 L 850 518.5270626711045 L 851 518.4237581837781 L 852 518.3102848685385 L 853 518.1866526365123 L 854 518.0528722861392 L 855 517.9089555022276 L 856 517.7549148549357 L 857 517.590763798672 L 858 517.4165166709212 L 859 517.2321886909915 L 860 517.0377959586854 L 861 516.8333554528932 L 862 516.6188850301107 L 863 516.3944034228789 L 864 516.1599302381479 L 865 515.9154859555647 L 866 515.6610919256842 L 867 515.3967703681046 L 868 515.1225443695263 L 869 514.8384378817356 L 870 514.5444757195128 L 871 514.240683558465 L 872 513.9270879327827 L 873 513.603716232923 L 874 513.2705967032172 L 875 512.927758439403 L 876 512.5752313860844 L 877 512.2130463341152 L 878 511.8412349179105 L 879 511.4598296126829 L 880 511.06886373160626 L 881 510.66837142290626 L 882 510.25838766687775 L 883 509.838948272829 L 884 509.41008987595444 L 885 508.9718499341347 L 886 508.52426672466487 L 887 508.06737934091154 L 888 507.60122768889755 L 889 507.1258524838173 L 890 506.64129524648 L 891 506.1475982996832 L 892 505.64480476451655 L 893 505.13295855659493 L 894 504.61210438222304 L 895 504.0822877344905 L 896 503.54355488929826 L 897 502.9959529013171 L 898 502.43952959987723 L 899 501.87433358479103 L 900 501.30041422210803 L 901 500.71782163980316 L 902 500.12660672339837 L 903 499.5268211115185 L 904 498.91851719138026 L 905 498.30174809421726 L 906 497.67656769063893 L 907 497.0430305859254 L 908 496.4011921152584 L 909 495.75110833888755 L 910 495.0928360372343 L 911 494.42643270593226 L 912 493.75195655080563 L 913 493.069466482785 L 914 492.37902211276247 L 915 491.6806837463842 L 916 490.9745123787837 L 917 490.2605696892541 L 918 489.53891803586095 L 919 488.8096204499959 L 920 488.07274063087084 L 921 487.3283429399544 L 922 486.57649239535067 L 923 485.8172546661198 L 924 485.0506960665432 L 925 484.27688355033 L 926 483.49588470477056 L 927 482.7077677448319 L 928 481.91260150720075 L 929 481.1104554442701 L 930 480.3013996180739 L 931 479.48550469416693 L 932 478.662841935453 L 933 477.8334831959604 L 934 476.997500914566 L 935 476.15496810866875 L 936 475.30595836781106 L 937 474.4505458472521 L 938 473.58880526149034 L 939 472.72081187773796 L 940 471.84664150934725 L 941 470.9663705091877 L 942 470.08007576297797 L 943 469.18783468257027 L 944 468.28972519918875 L 945 467.38582575662286 L 946 466.4762153043762 L 947 465.56097329076994 L 948 464.6401796560043 L 949 463.7139148251761 L 950 462.7822597012538 L 951 461.8452956580121 L 952 460.90310453292346 L 953 459.95576862001064 L 954 459.00337066265894 L 955 458.04599384638874 L 956 457.0837217915906 L 957 456.1166385462206 L 958 455.1448285784599 L 959 454.168376769337 L 960 453.18736840531363 L 961 452.2018891708358 L 962 451.21202514085024 L 963 450.2178627732855 L 964 449.21948890150094 L 965 448.21699072670225 L 966 447.21045581032513 L 967 446.19997206638766 L 968 445.18562775381093 L 969 444.16751146871076 L 970 443.14571213665914 L 971 442.1203190049174 L 972 441.09142163464077 L 973 440.05910989305664 L 974 439.0234739456139 L 975 437.98460424810867 L 976 436.9425915387833 L 977 435.8975268304006 L 978 434.84950140229563 L 979 433.79860679240164 L 980 432.74493478925564 L 981 431.68857742398126 L 982 430.6296269622501 L 983 429.56817589622375 L 984 428.50431693647414 L 985 427.43814300388664 L 986 426.3697472215438 L 987 425.29922290659164 L 988 424.2266635620892 L 989 423.15216286884186 L 990 422.0758146772182 L 991 420.9977129989536 L 992 419.9179519989385 L 993 418.8366259869937 L 994 417.75382940963385 L 995 416.66965684181685 L 996 415.58420297868446 L 997 414.4975626272907 L 998 413.4098306983212 L 999 412.3211021978041 L 1000 411.23147221881084 L 1001 410.14103593315093 L 1002 409.04988858305944 L 1003 407.95812547287795 L 1004 406.86584196073056 L 1005 405.7731334501954 L 1006 404.6800953819707 L 1007 403.5868232255397 L 1008 402.4934124708315 L 1009 401.3999586198807 L 1010 400.30655717848657 L 1011 399.2133036478703 L 1012 398.1202935163342 L 1013 397.0276222509213 L 1014 395.9353852890768 L 1015 394.8436780303131 L 1016 393.7525958278757 L 1017 392.6622339804163 L 1018 391.5726877236682 L 1019 390.4840522221284 L 1020 389.39642256074535 L 1021 388.30989373661487 L 1022 387.2245606506815 L 1023 386.14051809945016 L 1024 385.05786076670654 L 1025 383.97668321524645 L 1026 382.8970798786175 L 1027 381.8191450528697 L 1028 380.7429728883201 L 1029 379.6686573813292 L 1030 378.5962923660908 L 1031 377.5259715064371 L 1032 376.45778828765646 L 1033 375.3918360083291 L 1034 374.32820777217756 L 1035 373.26699647993513 L 1036 372.20829482123105 L 1037 371.1521952664957 L 1038 370.09879005888274 L 1039 369.0481712062129 L 1040 368.00043047293764 L 1041 366.95565937212416 L 1042 365.91394915746275 L 1043 364.8753908152955 L 1044 363.8400750566699 L 1045 362.80809230941566 L 1046 361.7795327102464 L 1047 360.7544860968874 L 1048 359.7330420002279 L 1049 358.71528963650167 L 1050 357.7013178994949 L 1051 356.6912153527812 L 1052 355.6850702219868 L 1053 354.68297038708465 L 1054 353.68500337471806 L 1055 352.6912563505564 L 1056 351.7018161116815 L 1057 350.71676907900667 L 1058 349.7362012897288 L 1059 348.7601983898125 L 1060 347.78884562651047 L 1061 346.8222278409175 L 1062 345.8604294605597 L 1063 344.9035344920215 L 1064 343.95162651360675 L 1065 343.00478866803974 L 1066 342.06310365520284 L 1067 341.1266537249134 L 1068 340.1955206697396 L 1069 339.26978581785687 L 1070 338.34953002594375 L 1071 337.43483367212 L 1072 336.5257766489261 L 1073 335.6224383563451 L 1074 334.7248976948679 L 1075 333.83323305860114 L 1076 332.9475223284205 L 1077 332.0678428651683 L 1078 331.1942715028965 L 1079 330.3268845421555 L 1080 329.4657577433306 L 1081 328.61096632002375 L 1082 327.76258493248486 L 1083 326.9206876810907 L 1084 326.0853480998723 L 1085 325.25663915009306 L 1086 324.4346332138751 L 1087 323.6194020878778 L 1088 322.8110169770266 L 1089 322.00954848829383 L 1090 321.21506662453197 L 1091 320.4276407783587 L 1092 319.64733972609633 L 1093 318.8742316217647 L 1094 318.1083839911282 L 1095 317.349863725798 L 1096 316.5987370773896 L 1097 315.8550696517359 L 1098 315.1189264031571 L 1099 314.39037162878753 L 1100 313.6694689629594 L 1101 312.95628137164545 L 1102 312.2508711469584 L 1103 311.5532999017108 L 1104 310.86362856403326 L 1105 310.1819173720528 L 1106 309.508225868632 L 1107 308.8426128961674 L 1108 308.18513659145066 L 1109 307.53585438059054 L 1110 306.89482297399707 L 1111 306.26209836142834 L 1112 305.63773580710034 L 1113 305.02178984485965 L 1114 304.4143142734205 L 1115 303.81536215166557 L 1116 303.22498579401207 L 1117 302.6432367658424 L 1118 302.0701658789997 L 1119 301.5058231873503 L 1120 300.95025798241176 L 1121 300.4035187890473 L 1122 299.8656533612282 L 1123 299.3367086778619 L 1124 298.8167309386893 L 1125 298.3057655602493 L 1126 297.80385717191217 L 1127 297.3110496119811 L 1128 296.82738592386386 L 1129 296.3529083523125 L 1130 295.8876583397341 L 1131 295.4316765225708 L 1132 294.98500272775044 L 1133 294.5476759692084 L 1134 294.11973444447926 L 1135 293.7012155313612 L 1136 293.29215578465073 L 1137 292.89259093295027 L 1138 292.5025558755476 L 1139 292.1220846793671 L 1140 291.75121057599466 L 1141 291.389965958775 L 1142 291.0383823799824 L 1143 290.6964905480646 L 1144 290.36432032496117 L 1145 290.0419007234945 L 1146 289.72925990483634 L 1147 289.4264251760478 L 1148 289.1334229876943 L 1149 288.8502789315357 L 1150 288.57701773829024 L 1151 288.3136632754751 L 1152 288.0602385453217 L 1153 287.81676568276606 L 1154 287.58326595351645 L 1155 287.3597597521949 L 1156 287.1462666005566 L 1157 286.9428051457845 L 1158 286.7493931588607 L 1159 286.56604753301417 L 1160 286.3927842822454 L 1161 286.2296185399276 L 1162 286.07656455748486 L 1163 285.9336357031475 L 1164 285.8008444607843 L 1165 285.6782024288122 L 1166 285.5657203191833 L 1167 285.4634079564492 L 1168 285.3712742769028 L 1169 285.28932732779793 L 1170 285.21757426664647 L 1171 285.1560213605929 L 1172 285.1046739858674 L 1173 285.0635366273159 L 1174 285.03261287800836 L 1175 285.0119054389253 L 1176 285.0014161187213 L 1177 285.0011458335677 L 1178 285.011094607072 L 1179 285.0312615702761 L 1180 285.06164496173227 L 1181 285.1022421276566 L 1182 285.15304952216127 L 1183 285.214062707564 L 1184 285.2852763547756 L 1185 285.3666842437657 L 1186 285.4582792641056 L 1187 285.5600534155899 L 1188 285.67199780893463 L 1189 285.7941026665541 L 1190 285.9263573234149 L 1191 286.06875022796714 L 1192 286.2212689431535 L 1193 286.38390014749575 L 1194 286.5566296362581 L 1195 286.73944232268775 L 1196 286.93232223933296 L 1197 287.13525253943743 L 1198 287.34821549841183 L 1199 287.571192515382 L 1200 287.8041641148134 L 1201 288.04710994821244 L 1202 288.30000879590364 L 1203 288.56283856888285 L 1204 288.835576310747 L 1205 289.1181981996989 L 1206 289.4106795506277 L 1207 289.71299481726567 L 1208 290.0251175944186 L 1209 290.3470206202728 L 1210 290.67867577877604 L 1211 291.0200541020931 L 1212 291.3711257731363 L 1213 291.73186012816933 L 1214 292.10222565948584 L 1215 292.48219001816153 L 1216 292.87172001687924 L 1217 293.270781632828 L 1218 293.67934001067454 L 1219 294.0973594656075 L 1220 294.5248034864545 L 1221 294.9616347388712 L 1222 295.40781506860185 L 1223 295.8633055048123 L 1224 296.32806626349316 L 1225 296.8020567509354 L 1226 297.2852355672755 L 1227 297.7775605101116 L 1228 298.27898857818946 L 1229 298.7894759751584 L 1230 299.30897811339673 L 1231 299.837449617906 L 1232 300.3748443302743 L 1233 300.92111531270785 L 1234 301.47621485213085 L 1235 302.0400944643525 L 1236 302.61270489830207 L 1237 303.1939961403308 L 1238 303.78391741857985 L 1239 304.38241720741536 L 1240 304.989443231928 L 1241 305.6049424725001 L 1242 306.22886116943545 L 1243 306.8611448276554 L 1244 307.5017382214586 L 1245 308.1505853993441 L 1246 308.8076296888992 L 1247 309.4728137017488 L 1248 310.1460793385678 L 1249 310.8273677941562 L 1250 311.516619562575 L 1251 312.21377444234327 L 1252 312.9187715416972 L 1253 313.63154928390804 L 1254 314.35204541266046 L 1255 315.08019699749036 L 1256 315.815940439281 L 1257 316.5592114758187 L 1258 317.309945187405 L 1259 318.0680760025274 L 1260 318.83353770358644 L 1261 319.6062634326791 L 1262 320.3861856974389 L 1263 321.1732363769306 L 1264 321.96734672760016 L 1265 322.76844738927883 L 1266 323.5764683912418 L 1267 324.39133915831883 L 1268 325.21298851705944 L 1269 326.04134470194896 L 1270 326.87633536167664 L 1271 327.71788756545556 L 1272 328.5659278093917 L 1273 329.42038202290524 L 1274 330.2811755751991 L 1275 331.14823328177806 L 1276 332.0214794110154 L 1277 332.90083769076705 L 1278 333.78623131503457 L 1279 334.67758295067273 L 1280 335.5748147441442 L 1281 336.47784832831974 L 1282 337.3866048293231 L 1283 338.30100487341946 L 1284 339.2209685939491 L 1285 340.1464156383027 L 1286 341.07726517493967 L 1287 342.01343590044837 L 1288 342.9548460466468 L 1289 343.9014133877257 L 1290 344.8530552474292 L 1291 345.8096885062768 L 1292 346.771229608823 L 1293 347.7375945709555 L 1294 348.7086989872298 L 1295 349.684458038243 L 1296 350.66478649804094 L 1297 351.64959874156244 L 1298 352.63880875211845 L 1299 353.6323301289042 L 1300 354.63007609454667 L 1301 355.63195950268334 L 1302 356.63789284557436 L 1303 357.6477882617453 L 1304 358.66155754366105 L 1305 359.6791121454311 L 1306 360.7003631905426 L 1307 361.7252214796233 L 1308 362.7535974982329 L 1309 363.785401424681 L 1310 364.8205431378724 L 1311 365.85893222517905 L 1312 366.9004779903368 L 1313 367.945089461367 L 1314 368.99267539852235 L 1315 370.0431443022557 L 1316 371.0964044212127 L 1317 372.152363760245 L 1318 373.2109300884458 L 1319 374.2720109472055 L 1320 375.33551365828663 L 1321 376.40134533192 L 1322 377.4694128749171 L 1323 378.5396229988013 L 1324 379.6118822279559 L 1325 380.68609690778914 L 1326 381.7621732129131 L 1327 382.8400171553402 L 1328 383.9195345926914 L 1329 385.0006312364192 L 1330 386.0832126600435 L 1331 387.16718430739775 L 1332 388.25245150088966 L 1333 389.33891944976943 L 1334 390.42649325840944 L 1335 391.5150779345929 L 1336 392.60457839780986 L 1337 393.69489948756336 L 1338 394.7859459716799 L 1339 395.87762255462775 L 1340 396.96983388584033 L 1341 398.0624845680446 L 1342 399.15547916559257 L 1343 400.24872221279816 L 1344 401.3421182222747 L 1345 402.43557169327534 L 1346 403.5289871200345 L 1347 404.62226900010893 L 1348 405.7153218427204 L 1349 406.8080501770953 L 1350 407.9003585608037 L 1351 408.9921515880956 L 1352 410.0833338982335 L 1353 411.1738101838223 L 1354 412.2634851991332 L 1355 413.3522637684231 L 1356 414.4400507942472 L 1357 415.52675126576565 L 1358 416.61227026704114 L 1359 417.6965129853304 L 1360 418.7793847193646 L 1361 419.86079088762114 L 1362 420.94063703658486 L 1363 422.0188288489972 L 1364 423.0952721520953 L 1365 424.16987292583644 L 1366 425.24253731111054 L 1367 426.31317161793805 L 1368 427.38168233365246 L 1369 428.44797613106925 L 1370 429.51195987663647 L 1371 430.57354063856957 L 1372 431.63262569496834 L 1373 432.6891225419159 L 1374 433.7429389015571 L 1375 434.7939827301602 L 1376 435.84216222615476 L 1377 436.88738583815064 L 1378 437.92956227293416 L 1379 438.9686005034416 L 1380 440.0044097767107 L 1381 441.0368996218064 L 1382 442.0659798577235 L 1383 443.0915606012631 L 1384 444.11355227488275 L 1385 445.1318656145217 L 1386 446.1464116773964 L 1387 447.1571018497696 L 1388 448.16384785468995 L 1389 449.16656175970263 L 1390 450.16515598452895 L 1391 451.159543308717 L 1392 452.1496368792589 L 1393 453.1353502181772 L 1394 454.1165972300783 L 1395 455.0932922096714 L 1396 456.0653498492554 L 1397 457.03268524616965 L 1398 457.99521391020903 L 1399 458.9528517710044 L 1400 459.9055151853651 L 1401 460.8531209445844 L 1402 461.7955862817079 L 1403 462.73282887876235 L 1404 463.66476687394527 L 1405 464.5913188687756 L 1406 465.5124039352025 L 1407 466.4279416226747 L 1408 467.33785196516703 L 1409 468.2420554881646 L 1410 469.140473215605 L 1411 470.0330266767753 L 1412 470.9196379131671 L 1413 471.8002294852849 L 1414 472.6747244794103 L 1415 473.54304651431977 L 1416 474.40511974795606 L 1417 475.26086888405194 L 1418 476.110219178708 L 1419 476.9530964469201 L 1420 477.789427069059 L 1421 478.61913799730127 L 1422 479.44215676200815 L 1423 480.2584114780567 L 1424 481.06783085111783 L 1425 481.8703441838832 L 1426 482.66588138224085 L 1427 483.4543729613962 L 1428 484.23575005194255 L 1429 485.00994440587533 L 1430 485.7768884025537 L 1431 486.5365150546062 L 1432 487.2887580137822 L 1433 488.0335515767464 L 1434 488.7708306908181 L 1435 489.5005309596529 L 1436 490.22258864886714 L 1437 490.93694069160506 L 1438 491.6435246940466 L 1439 492.3422789408578 L 1440 493.03314240058086 L 1441 493.7160547309648 L 1442 494.39095628423615 L 1443 495.0577881123083 L 1444 495.7164919719309 L 1445 496.36701032977663 L 1446 497.0092863674663 L 1447 497.6432639865317 L 1448 498.26888781331536 L 1449 498.8861032038069 L 1450 499.4948562484163 L 1451 500.095093776682 L 1452 500.6867633619152 L 1453 501.2698133257793 L 1454 501.84419274280276 L 1455 502.40985144482806 L 1456 502.96674002539316 L 1457 503.51480984404674 L 1458 504.0540130305967 L 1459 504.5843024892912 L 1460 505.1056319029324 L 1461 505.61795573692154 L 1462 506.1212292432368 L 1463 506.6154084643409 L 1464 507.10045023702094 L 1465 507.57631219615837 L 1466 508.04295277842925 L 1467 508.5003312259346 L 1468 508.9484075897602 L 1469 509.3871427334662 L 1470 509.81649833650465 L 1471 510.2364368975674 L 1472 510.64692173786113 L 1473 511.0479170043112 L 1474 511.439387672693 L 1475 511.821299550691 L 1476 512.1936192808855 L 1477 512.5563143436663 L 1478 512.9093530600721 L 1479 513.252704594559 L 1480 513.5863389576923 L 1481 513.9102270087667 L 1482 514.2243404583515 L 1483 514.5286518707612 L 1484 514.8231346664519 L 1485 515.1077631243429 L 1486 515.3825123840635 L 1487 515.6473584481237 L 1488 515.9022781840112 L 1489 516.1472493262108 L 1490 516.3822504781504 L 1491 516.6072611140681 L 1492 516.822261580807 L 1493 517.0272330995301 L 1494 517.2221577673618 L 1495 517.4070185589502 L 1496 517.5817993279557 L 1497 517.7464848084599 L 1498 517.9010606162998 L 1499 518.0455132503242 L 1500 518.1798300935724 L 1501 518.3039994143764 L 1502 518.4180103673859 L 1503 518.5218529945151 L 1504 518.6155182258128 L 1505 518.6989978802545 L 1506 518.7722846664572 L 1507 518.8353721833153 L 1508 518.8882549205612 L 1509 518.9309282592452 L 1510 518.96338847214 L 1511 518.9856327240653 L 1512 518.9976590721365 L 1513 518.999466465933 L 1514 518.9910547475914 L 1515 518.9724246518184 L 1516 518.9435778058269 L 1517 518.9045167291937 L 1518 518.8552448336397 L 1519 518.7957664227318 L 1520 518.7260866915069 L 1521 518.6462117260184 L 1522 518.5561485028043 L 1523 518.4559048882778 L 1524 518.345489638041 L 1525 518.2249123961193 L 1526 518.0941836941191 L 1527 517.9533149503086 L 1528 517.8023184686198 L 1529 517.6412074375742 L 1530 517.4699959291308 L 1531 517.2886988974569 L 1532 517.0973321776223 L 1533 516.8959124842156 L 1534 516.684457409885 L 1535 516.462985423801 L 1536 516.231515870044 L 1537 515.9900689659139 L 1538 515.738665800165 L 1539 515.4773283311636" stroke-linecap="round" stroke-linejoin="round" stroke-miterlimit="10" stroke-width="4"/></g></svg>